<svg width="24" height="14" viewBox="0 0 24 14" fill="none" xmlns="http://www.w3.org/2000/svg">
<path d="M13.1798 0.243408H2.68645C1.30243 0.243408 0.170044 1.37579 0.170044 2.75982V11.2401C0.170044 12.6242 1.30243 13.7565 2.68645 13.7565H13.1798C14.5639 13.7565 15.6963 12.6242 15.6963 11.2401V2.75982C15.6963 1.35063 14.5639 0.243408 13.1798 0.243408ZM21.3079 1.62743C21.1569 1.6526 21.0059 1.72809 20.8801 1.80358L16.9545 4.06835V9.9064L20.9052 12.1712C21.635 12.599 22.5409 12.3473 22.9687 11.6176C23.0945 11.3911 23.17 11.1395 23.17 10.8627V3.08695C23.17 2.15588 22.2893 1.40096 21.3079 1.62743Z" fill="url(#paint0_linear_10_1351)"/>
<defs>
<linearGradient id="paint0_linear_10_1351" x1="21.2833" y1="0.243419" x2="-2.73614" y2="3.02018" gradientUnits="userSpaceOnUse">
<stop stop-color="#7254E2"/>
<stop offset="1" stop-color="#8267E6"/>
</linearGradient>
</defs>
</svg>
