<svg width="29" height="17" viewBox="0 0 29 17" fill="none" xmlns="http://www.w3.org/2000/svg">
<path d="M16.4037 -2.42461e-08L3.17287 -4.68979e-09C1.4278 -2.11041e-09 2.10566e-09 1.42458 4.67926e-09 3.16574L2.04483e-08 13.8343C2.3022e-08 15.5755 1.4278 17 3.17287 17L16.4037 17C18.1488 17 19.5766 15.5755 19.5766 13.8343L19.5766 3.16574C19.5766 1.39293 18.1488 -2.68256e-08 16.4037 -2.42461e-08ZM26.6521 1.74115C26.4617 1.77282 26.2714 1.86779 26.1127 1.96275L21.1631 4.81192L21.1631 12.1564L26.1444 15.0056C27.0646 15.5438 28.2068 15.2272 28.7462 14.3092C28.9048 14.0242 29 13.7077 29 13.3595L29 3.57728C29 2.40596 27.8896 1.45624 26.6521 1.74115Z" fill="white"/>
</svg>
