<svg width="38" height="38" viewBox="0 0 38 38" fill="none" xmlns="http://www.w3.org/2000/svg">
<path d="M12.9987 19.16C12.9987 15.7582 15.7574 12.9997 19.1612 12.9997C22.5651 12.9997 25.3252 15.7582 25.3252 19.16C25.3252 22.5618 22.5651 25.3202 19.1612 25.3202C15.7574 25.3202 12.9987 22.5618 12.9987 19.16ZM9.66661 19.16C9.66661 24.4007 13.9173 28.6489 19.1612 28.6489C24.4051 28.6489 28.6558 24.4007 28.6558 19.16C28.6558 13.9192 24.4051 9.67107 19.1612 9.67107C13.9173 9.67107 9.66661 13.9192 9.66661 19.16ZM26.8128 9.29484C26.8127 9.73342 26.9426 10.1622 27.1863 10.527C27.43 10.8917 27.7764 11.1761 28.1818 11.3441C28.5871 11.5121 29.0332 11.5562 29.4637 11.4708C29.8941 11.3854 30.2896 11.1744 30.6 10.8644C30.9105 10.5544 31.1219 10.1593 31.2077 9.72921C31.2935 9.29909 31.2498 8.8532 31.082 8.44793C30.9142 8.04267 30.6299 7.69623 30.2652 7.45242C29.9004 7.20861 29.4714 7.07838 29.0326 7.0782H29.0317C28.4435 7.07848 27.8794 7.31208 27.4633 7.72769C27.0473 8.1433 26.8134 8.70695 26.8128 9.29484ZM11.6911 34.2017C9.88835 34.1197 8.90851 33.8196 8.25735 33.566C7.39407 33.2301 6.77811 32.8301 6.13051 32.1838C5.4829 31.5374 5.08203 30.9224 4.74742 30.0597C4.49359 29.4092 4.1933 28.4297 4.11135 26.628C4.02171 24.6801 4.00381 24.095 4.00381 19.1601C4.00381 14.2253 4.02319 13.6418 4.11135 11.6923C4.19345 9.89061 4.49595 8.91298 4.74742 8.26059C5.08351 7.39782 5.48379 6.78224 6.13051 6.13502C6.77723 5.4878 7.39259 5.08717 8.25735 4.75277C8.90821 4.49908 9.88835 4.19898 11.6911 4.11708C13.6401 4.02749 14.2256 4.0096 19.1612 4.0096C24.0968 4.0096 24.6829 4.02897 26.6336 4.11708C28.4363 4.19913 29.4145 4.50145 30.0673 4.75277C30.9306 5.08717 31.5465 5.48869 32.1941 6.13502C32.8418 6.78135 33.2411 7.39782 33.5772 8.26059C33.8311 8.91106 34.1313 9.89061 34.2133 11.6923C34.3029 13.6418 34.3208 14.2253 34.3208 19.1601C34.3208 24.095 34.3029 24.6785 34.2133 26.628C34.1312 28.4297 33.8294 29.4089 33.5772 30.0597C33.2411 30.9224 32.8409 31.538 32.1941 32.1838C31.5474 32.8295 30.9306 33.2301 30.0673 33.566C29.4164 33.8197 28.4363 34.1198 26.6336 34.2017C24.6845 34.2913 24.099 34.3092 19.1612 34.3092C14.2234 34.3092 13.6395 34.2913 11.6911 34.2017ZM11.538 0.792575C9.56958 0.882163 8.22451 1.19409 7.04985 1.6509C5.83333 2.12264 4.80349 2.75552 3.77438 3.78238C2.74528 4.80924 2.11365 5.84009 1.64163 7.05588C1.18454 8.23058 0.872426 9.5741 0.782785 11.5413C0.691664 13.5117 0.670807 14.1416 0.670807 19.16C0.670807 24.1784 0.691664 24.8083 0.782785 26.7786C0.872426 28.746 1.18454 30.0894 1.64163 31.2641C2.11365 32.4791 2.74543 33.5112 3.77438 34.5376C4.80334 35.564 5.83333 36.196 7.04985 36.6691C8.22673 37.1259 9.56958 37.4378 11.538 37.5274C13.5105 37.617 14.1398 37.6393 19.1612 37.6393C24.1826 37.6393 24.8129 37.6185 26.7844 37.5274C28.753 37.4378 30.0972 37.1259 31.2726 36.6691C32.4884 36.196 33.5189 35.5644 34.548 34.5376C35.5771 33.5107 36.2075 32.4791 36.6808 31.2641C37.1379 30.0894 37.4515 28.7459 37.5396 26.7786C37.6293 24.8068 37.6501 24.1784 37.6501 19.16C37.6501 14.1416 37.6293 13.5117 37.5396 11.5413C37.45 9.57395 37.1379 8.22984 36.6808 7.05588C36.2075 5.84083 35.5755 4.81087 34.548 3.78238C33.5206 2.7539 32.4884 2.12264 31.2741 1.6509C30.0972 1.19409 28.7529 0.880684 26.7859 0.792575C24.8144 0.702987 24.1841 0.680664 19.1627 0.680664C14.1413 0.680664 13.5105 0.701509 11.538 0.792575Z" fill="url(#paint0_radial_132_82)"/>
<path d="M12.9987 19.16C12.9987 15.7582 15.7574 12.9997 19.1612 12.9997C22.5651 12.9997 25.3252 15.7582 25.3252 19.16C25.3252 22.5618 22.5651 25.3202 19.1612 25.3202C15.7574 25.3202 12.9987 22.5618 12.9987 19.16ZM9.66661 19.16C9.66661 24.4007 13.9173 28.6489 19.1612 28.6489C24.4051 28.6489 28.6558 24.4007 28.6558 19.16C28.6558 13.9192 24.4051 9.67107 19.1612 9.67107C13.9173 9.67107 9.66661 13.9192 9.66661 19.16ZM26.8128 9.29484C26.8127 9.73342 26.9426 10.1622 27.1863 10.527C27.43 10.8917 27.7764 11.1761 28.1818 11.3441C28.5871 11.5121 29.0332 11.5562 29.4637 11.4708C29.8941 11.3854 30.2896 11.1744 30.6 10.8644C30.9105 10.5544 31.1219 10.1593 31.2077 9.72921C31.2935 9.29909 31.2498 8.8532 31.082 8.44793C30.9142 8.04267 30.6299 7.69623 30.2652 7.45242C29.9004 7.20861 29.4714 7.07838 29.0326 7.0782H29.0317C28.4435 7.07848 27.8794 7.31208 27.4633 7.72769C27.0473 8.1433 26.8134 8.70695 26.8128 9.29484ZM11.6911 34.2017C9.88835 34.1197 8.90851 33.8196 8.25735 33.566C7.39407 33.2301 6.77811 32.8301 6.13051 32.1838C5.4829 31.5374 5.08203 30.9224 4.74742 30.0597C4.49359 29.4092 4.1933 28.4297 4.11135 26.628C4.02171 24.6801 4.00381 24.095 4.00381 19.1601C4.00381 14.2253 4.02319 13.6418 4.11135 11.6923C4.19345 9.89061 4.49595 8.91298 4.74742 8.26059C5.08351 7.39782 5.48379 6.78224 6.13051 6.13502C6.77723 5.4878 7.39259 5.08717 8.25735 4.75277C8.90821 4.49908 9.88835 4.19898 11.6911 4.11708C13.6401 4.02749 14.2256 4.0096 19.1612 4.0096C24.0968 4.0096 24.6829 4.02897 26.6336 4.11708C28.4363 4.19913 29.4145 4.50145 30.0673 4.75277C30.9306 5.08717 31.5465 5.48869 32.1941 6.13502C32.8418 6.78135 33.2411 7.39782 33.5772 8.26059C33.8311 8.91106 34.1313 9.89061 34.2133 11.6923C34.3029 13.6418 34.3208 14.2253 34.3208 19.1601C34.3208 24.095 34.3029 24.6785 34.2133 26.628C34.1312 28.4297 33.8294 29.4089 33.5772 30.0597C33.2411 30.9224 32.8409 31.538 32.1941 32.1838C31.5474 32.8295 30.9306 33.2301 30.0673 33.566C29.4164 33.8197 28.4363 34.1198 26.6336 34.2017C24.6845 34.2913 24.099 34.3092 19.1612 34.3092C14.2234 34.3092 13.6395 34.2913 11.6911 34.2017ZM11.538 0.792575C9.56958 0.882163 8.22451 1.19409 7.04985 1.6509C5.83333 2.12264 4.80349 2.75552 3.77438 3.78238C2.74528 4.80924 2.11365 5.84009 1.64163 7.05588C1.18454 8.23058 0.872426 9.5741 0.782785 11.5413C0.691664 13.5117 0.670807 14.1416 0.670807 19.16C0.670807 24.1784 0.691664 24.8083 0.782785 26.7786C0.872426 28.746 1.18454 30.0894 1.64163 31.2641C2.11365 32.4791 2.74543 33.5112 3.77438 34.5376C4.80334 35.564 5.83333 36.196 7.04985 36.6691C8.22673 37.1259 9.56958 37.4378 11.538 37.5274C13.5105 37.617 14.1398 37.6393 19.1612 37.6393C24.1826 37.6393 24.8129 37.6185 26.7844 37.5274C28.753 37.4378 30.0972 37.1259 31.2726 36.6691C32.4884 36.196 33.5189 35.5644 34.548 34.5376C35.5771 33.5107 36.2075 32.4791 36.6808 31.2641C37.1379 30.0894 37.4515 28.7459 37.5396 26.7786C37.6293 24.8068 37.6501 24.1784 37.6501 19.16C37.6501 14.1416 37.6293 13.5117 37.5396 11.5413C37.45 9.57395 37.1379 8.22984 36.6808 7.05588C36.2075 5.84083 35.5755 4.81087 34.548 3.78238C33.5206 2.7539 32.4884 2.12264 31.2741 1.6509C30.0972 1.19409 28.7529 0.880684 26.7859 0.792575C24.8144 0.702987 24.1841 0.680664 19.1627 0.680664C14.1413 0.680664 13.5105 0.701509 11.538 0.792575Z" fill="url(#paint1_radial_132_82)"/>
<defs>
<radialGradient id="paint0_radial_132_82" cx="0" cy="0" r="1" gradientUnits="userSpaceOnUse" gradientTransform="translate(5.58393 37.8139) scale(48.2753 48.2464)">
<stop offset="0.09" stop-color="#FA8F21"/>
<stop offset="0.78" stop-color="#D82D7E"/>
</radialGradient>
<radialGradient id="paint1_radial_132_82" cx="0" cy="0" r="1" gradientUnits="userSpaceOnUse" gradientTransform="translate(23.098 39.4696) scale(38.0476 38.0248)">
<stop offset="0.64" stop-color="#8C3AAA" stop-opacity="0"/>
<stop offset="1" stop-color="#8C3AAA"/>
</radialGradient>
</defs>
</svg>
