<svg width="41" height="42" viewBox="0 0 41 42" fill="none" xmlns="http://www.w3.org/2000/svg">
<path d="M20.2073 41.5028C31.1867 41.5028 40.0872 32.4088 40.0872 21.1907C40.0872 9.97271 31.1867 0.878662 20.2073 0.878662C9.22795 0.878662 0.327393 9.97271 0.327393 21.1907C0.327393 32.4088 9.22795 41.5028 20.2073 41.5028Z" fill="#34AADF"/>
<path d="M8.84956 20.7465C8.84956 20.7465 18.6971 16.466 22.1123 14.9587C23.4216 14.3558 27.8615 12.4265 27.8615 12.4265C27.8615 12.4265 29.9107 11.5825 29.7399 13.6323C29.6829 14.4764 29.2276 17.4306 28.7722 20.6259C28.0891 25.1477 27.3491 30.0914 27.3491 30.0914C27.3491 30.0914 27.2353 31.4781 26.2677 31.7193C25.3 31.9604 23.7061 30.8753 23.4216 30.634C23.1938 30.4532 19.1524 27.7401 17.6724 26.4137C17.274 26.052 16.8186 25.3286 17.7293 24.4845C19.7785 22.4949 22.2262 20.0231 23.7061 18.4556C24.3892 17.732 25.0722 16.0439 22.2262 18.0938C18.1847 21.048 14.2002 23.8213 14.2002 23.8213C14.2002 23.8213 13.2894 24.4242 11.5818 23.8816C9.87409 23.339 7.88182 22.6155 7.88182 22.6155C7.88182 22.6155 6.51578 21.7112 8.84956 20.7465Z" fill="white"/>
</svg>
